<svg width="1420" height="17870" viewBox="0 0 1420 17870" fill="none" xmlns="http://www.w3.org/2000/svg">
<g filter="url(#filter0_d_119_26)">
<path d="M941.889 0.0952148C941.889 0.0952148 932.539 47.9265 941.889 76.0952C967.765 154.055 1077.43 74.7077 1148.39 116.095C1210.93 152.575 1246.06 185.467 1274.39 252.095C1358.1 448.946 1009.76 308.834 795.889 304.595C650.81 301.72 357.389 281.595 357.389 281.595C357.389 281.595 151.256 281.728 185.889 166.595C211.075 82.8654 269.953 40.5952 357.389 40.5952C538.889 40.5952 664.381 65.5952 841.389 65.5952C1006.39 65.5952 1222.3 31.2181 1324.89 166.595C1430.17 305.525 1298.95 614.223 1324.89 786.595C1347.44 936.432 1350.85 1025.31 1324.89 1174.6C1303.98 1294.81 1300.52 1372.96 1229.39 1472.1C1158.08 1571.47 1083.46 1597.19 977.389 1658.1C748.837 1789.33 552.771 1702.99 327.389 1839.6C217.051 1906.47 105.137 1922.48 69.8887 2046.6C53.2455 2105.2 52.9008 2144.09 69.8887 2202.6C105.495 2325.22 185.824 2380.47 327.389 2404.1C468.954 2427.72 548.324 2440.97 689.889 2464.6C831.454 2488.22 941.978 2587.58 1072.89 2706.6C1188.89 2812.06 1296.79 2864.86 1324.89 3019.1C1345.29 3131.05 1343.34 3215.56 1274.39 3306.1C1218.77 3379.12 1163.74 3414.01 1072.89 3427.1C973.053 3441.47 889.657 3429.75 825.889 3351.6C743.19 3250.24 749.043 3076.9 866.389 3019.1C950.933 2977.45 1014.65 3032.86 1103.39 3064.6C1218.04 3105.59 1303.76 3123.69 1370.39 3225.6C1454.38 3354.05 1395.84 3467.24 1370.39 3618.6C1358.27 3690.66 1363.04 3737.77 1324.89 3800.1C1289.96 3857.14 1247.94 3870.63 1198.89 3916.1C1051.81 4052.44 998.818 4167.52 825.889 4269.1C676.797 4356.67 537.644 4300.81 407.889 4415.1C305.76 4505.05 284.382 4589.47 226.389 4712.6C162.793 4847.61 129.194 4927.76 105.389 5075.1C81.8424 5220.82 69.5678 5309.89 105.389 5453.1C151.777 5638.55 202.266 5770.26 367.389 5866.6C445.959 5912.43 501.933 5912.08 589.389 5937.1C738.98 5979.88 977.389 6027.6 977.389 6027.6C977.389 6027.6 1464.18 6293.61 1370.39 6521.6C1315.24 6655.66 1072.89 6743.6 1072.89 6743.6C1072.89 6743.6 745.99 6970 558.889 7141.6C365.882 7318.6 105.389 7460.45 105.389 7635.6C105.389 7810.75 -121.611 8039.1 105.389 8084.1C332.389 8129.1 -12.0135 8500.66 105.389 8719.1C237.249 8964.43 725.389 9071.6 725.389 9071.6C725.389 9071.6 1166.77 9332.77 1244.39 9616.1C1301.79 9825.62 1354.49 10023.8 1193.89 10170.1C1057.51 10294.3 893.552 10306.5 725.389 10230.6C535.855 10145.1 460.434 9975 463.389 9767.1C466.271 9564.27 542.55 9406.44 725.389 9318.6C910.264 9229.77 1086.18 9268.57 1244.39 9399.1C1438.23 9559.02 1375.39 10029.1 1375.39 10029.1C1375.39 10029.1 1633.08 10939.9 1244.39 11072.6C1104.68 11120.3 1012.05 11048.6 866.389 11072.6C725.278 11095.8 643.694 11118.3 518.889 11188.1C352.321 11281.3 267.36 11364.4 165.889 11526.1C93.6164 11641.2 57.5081 11714.6 34.8887 11848.6C17.5388 11951.4 19.2905 12012.5 34.8887 12115.6C56.6117 12259.2 74.8219 12350.5 165.889 12463.6C266.671 12588.8 384.16 12587.5 518.889 12675.1C714.79 12802.5 849.537 12850.8 1002.39 13027.6C1232.72 13293.9 1353.54 13518.6 1324.89 13869.6C1304.01 14125.3 1235.89 14280.2 1067.89 14474.1C951.874 14608 838.974 14630.3 704.889 14746.1C467.569 14951 218.724 15032.1 165.889 15341.1C149.304 15438.1 160.708 15494.8 165.889 15593.1C174.674 15759.7 155.686 15864.9 226.389 16016.1C310.748 16196.4 448.681 16233.2 589.389 16374.1C780.16 16565.1 1072.89 16868.1 1072.89 16868.1C1072.89 16868.1 1374.86 17252.9 1294.89 17503.1C1235.58 17688.7 946.889 17860.6 946.889 17860.6" stroke="black" shape-rendering="crispEdges"/>
</g>
<defs>
<filter id="filter0_d_119_26" x="0" y="0" width="1463.63" height="17869" filterUnits="userSpaceOnUse" color-interpolation-filters="sRGB">
<feFlood flood-opacity="0" result="BackgroundImageFix"/>
<feColorMatrix in="SourceAlpha" type="matrix" values="0 0 0 0 0 0 0 0 0 0 0 0 0 0 0 0 0 0 127 0" result="hardAlpha"/>
<feOffset dy="4"/>
<feGaussianBlur stdDeviation="2"/>
<feComposite in2="hardAlpha" operator="out"/>
<feColorMatrix type="matrix" values="0 0 0 0 0 0 0 0 0 0 0 0 0 0 0 0 0 0 0.25 0"/>
<feBlend mode="normal" in2="BackgroundImageFix" result="effect1_dropShadow_119_26"/>
<feBlend mode="normal" in="SourceGraphic" in2="effect1_dropShadow_119_26" result="shape"/>
</filter>
</defs>
</svg>
